<?xml version="1.0" standalone="no"?>
<!DOCTYPE svg PUBLIC "-//W3C//DTD SVG 20010904//EN"
 "http://www.w3.org/TR/2001/REC-SVG-20010904/DTD/svg10.dtd">
<svg version="1.0" xmlns="http://www.w3.org/2000/svg"
 width="82.000000pt" height="74.000000pt" viewBox="0 0 82.000000 74.000000"
 preserveAspectRatio="xMidYMid meet">

<g transform="translate(0.000000,74.000000) scale(0.100000,-0.100000)"
fill="#000000" stroke="none">
<path d="M170 385 l0 -245 45 0 45 0 0 245 0 245 -45 0 -45 0 0 -245z"/>
<path d="M350 580 l0 -50 108 0 c114 0 132 -6 132 -45 0 -40 -30 -55 -108 -55
l-72 0 0 -45 0 -45 68 0 c76 0 112 -17 112 -54 0 -40 -18 -46 -132 -46 l-108
0 0 -50 0 -50 108 0 c123 0 162 14 199 69 27 40 30 102 8 145 -14 26 -14 33 0
62 22 47 19 105 -8 145 -37 55 -76 69 -199 69 l-108 0 0 -50z"/>
</g>
</svg>
